<svg xmlns="http://www.w3.org/2000/svg" width="1600" height="900" viewBox="0 0 1600 900">
  <rect width="1600" height="900" fill="#fff"/>
  <rect x="0" y="0" width="1600" height="90" fill="#f7f6f3"/>
  <text x="740" y="56" font-family="Arial, Helvetica, sans-serif" font-size="32" font-weight="700" fill="#383838">DERYAN</text>
  <rect x="146" y="150" width="632" height="632" fill="#f5f5f3"/>
  <circle cx="462" cy="456" r="178" fill="#343434"/>
  <rect x="372" y="338" width="180" height="250" rx="42" fill="#202020"/>
  <rect x="852" y="154" width="600" height="650" fill="#fff"/>
  <text x="852" y="208" font-family="Arial, Helvetica, sans-serif" font-size="36" font-weight="700" fill="#222">Luxe Easy Lightweight Buggy - Black</text>
  <text x="852" y="258" font-family="Arial, Helvetica, sans-serif" font-size="22" fill="#f5822a">★★★★★ 4.8 | 176 reviews</text>
  <text x="852" y="306" font-family="Arial, Helvetica, sans-serif" font-size="26" font-weight="700" fill="#f05223">EUR 99,00</text>
  <line x1="852" y1="352" x2="1452" y2="352" stroke="#e5e5e5"/>
  <text x="852" y="410" font-family="Arial, Helvetica, sans-serif" font-size="24" font-weight="700" fill="#111">Kleur</text>
  <text x="1385" y="410" font-family="Arial, Helvetica, sans-serif" font-size="21" font-weight="700" fill="#111">Zwart</text>
  <rect x="852" y="436" width="276" height="100" rx="13" fill="#fff" stroke="#ff8a3d" stroke-width="3"/>
  <circle cx="990" cy="486" r="30" fill="#323232"/>
  <path d="M978 485l10 10 22-24" fill="none" stroke="#fff" stroke-width="5" stroke-linecap="round" stroke-linejoin="round"/>
  <rect x="1158" y="436" width="276" height="100" rx="13" fill="#fff" stroke="#d2d6dc" stroke-width="3"/>
  <circle cx="1296" cy="486" r="30" fill="#ddd6cc" stroke="#c9c2b8" stroke-width="3"/>
  <text x="852" y="598" font-family="Arial, Helvetica, sans-serif" font-size="24" font-weight="700" fill="#111">Compleet</text>
  <text x="1216" y="598" font-family="Arial, Helvetica, sans-serif" font-size="21" font-weight="700" fill="#111">Met bodemverhoger</text>
  <rect x="852" y="624" width="276" height="96" rx="13" fill="#fff" stroke="#ff8a3d" stroke-width="3"/>
  <text x="960" y="682" font-family="Arial, Helvetica, sans-serif" font-size="26" font-weight="700" fill="#111">Ja</text>
  <rect x="1158" y="624" width="276" height="96" rx="13" fill="#fff" stroke="#d2d6dc" stroke-width="3"/>
  <text x="1262" y="682" font-family="Arial, Helvetica, sans-serif" font-size="26" font-weight="700" fill="#111">Nee</text>
  <rect x="852" y="762" width="600" height="60" rx="30" fill="#748d61"/>
  <text x="1096" y="800" font-family="Arial, Helvetica, sans-serif" font-size="22" font-weight="700" fill="#fff">Add to cart</text>
</svg>
