<svg xmlns="http://www.w3.org/2000/svg" width="1600" height="900" viewBox="0 0 1600 900">
  <rect width="1600" height="900" fill="#f4f4f2"/>
  <rect x="0" y="0" width="250" height="900" fill="#ededeb"/>
  <text x="42" y="70" font-family="Arial, Helvetica, sans-serif" font-size="26" font-weight="700" fill="#2c2c2c">Deryan Swatches</text>
  <rect x="24" y="128" width="202" height="52" rx="12" fill="#fff"/>
  <text x="54" y="162" font-family="Arial, Helvetica, sans-serif" font-size="22" font-weight="700" fill="#252525">Product groups</text>
  <text x="54" y="226" font-family="Arial, Helvetica, sans-serif" font-size="22" fill="#626262">Variant swatches</text>
  <text x="54" y="284" font-family="Arial, Helvetica, sans-serif" font-size="22" fill="#626262">Appearance</text>
  <text x="54" y="342" font-family="Arial, Helvetica, sans-serif" font-size="22" fill="#626262">Settings</text>
  <text x="310" y="86" font-family="Arial, Helvetica, sans-serif" font-size="34" font-weight="700" fill="#2d2d2d">Product groups</text>
  <rect x="1245" y="50" width="178" height="48" rx="11" fill="#303030"/>
  <text x="1279" y="81" font-family="Arial, Helvetica, sans-serif" font-size="20" font-weight="700" fill="#fff">Create group</text>
  <rect x="310" y="132" width="1210" height="676" rx="18" fill="#fff" stroke="#dadada"/>
  <rect x="344" y="166" width="1138" height="56" rx="10" fill="#fff" stroke="#aeb3b8"/>
  <text x="402" y="202" font-family="Arial, Helvetica, sans-serif" font-size="20" fill="#646464">Filter products or groups</text>
  <line x1="310" y1="252" x2="1520" y2="252" stroke="#e5e5e5"/>
  <text x="410" y="294" font-family="Arial, Helvetica, sans-serif" font-size="20" font-weight="700" fill="#343434">Title</text>
  <text x="780" y="294" font-family="Arial, Helvetica, sans-serif" font-size="20" font-weight="700" fill="#343434">Option name</text>
  <text x="1070" y="294" font-family="Arial, Helvetica, sans-serif" font-size="20" font-weight="700" fill="#343434">Products</text>
  <text x="1290" y="294" font-family="Arial, Helvetica, sans-serif" font-size="20" font-weight="700" fill="#343434">Status</text>
  <g font-family="Arial, Helvetica, sans-serif" font-size="20" fill="#333">
    <rect x="344" y="330" width="58" height="58" rx="9" fill="#f0efec" stroke="#dedbd5"/>
    <text x="410" y="365" font-weight="700">Campingbed Believer</text><text x="780" y="365">Kleur</text><text x="1070" y="365">2 products</text>
    <rect x="1290" y="342" width="96" height="30" rx="15" fill="#c7f8dc"/><text x="1310" y="364" fill="#12603a">Synced</text>
    <line x1="310" y1="412" x2="1520" y2="412" stroke="#ededed"/>
    <rect x="344" y="440" width="58" height="58" rx="9" fill="#f0efec" stroke="#dedbd5"/>
    <text x="410" y="475" font-weight="700">Luxe Easy Buggy</text><text x="780" y="475">Kleur</text><text x="1070" y="475">6 products</text>
    <rect x="1290" y="452" width="96" height="30" rx="15" fill="#c7f8dc"/><text x="1310" y="474" fill="#12603a">Synced</text>
    <line x1="310" y1="522" x2="1520" y2="522" stroke="#ededed"/>
    <rect x="344" y="550" width="58" height="58" rx="9" fill="#f0efec" stroke="#dedbd5"/>
    <text x="410" y="585" font-weight="700">Kinderstoel Bouncer</text><text x="780" y="585">Model</text><text x="1070" y="585">2 products</text>
    <rect x="1290" y="562" width="96" height="30" rx="15" fill="#c7f8dc"/><text x="1310" y="584" fill="#12603a">Synced</text>
    <line x1="310" y1="632" x2="1520" y2="632" stroke="#ededed"/>
    <rect x="344" y="660" width="58" height="58" rx="9" fill="#f0efec" stroke="#dedbd5"/>
    <text x="410" y="695" font-weight="700">Autostoel Charlie</text><text x="780" y="695">Color</text><text x="1070" y="695">3 products</text>
    <rect x="1290" y="672" width="96" height="30" rx="15" fill="#c7f8dc"/><text x="1310" y="694" fill="#12603a">Synced</text>
  </g>
</svg>
